<?xml version="1.0" encoding="UTF-8"?>
<!DOCTYPE svg PUBLIC "-//W3C//DTD SVG 1.1//EN" "http://www.w3.org/Graphics/SVG/1.1/DTD/svg11.dtd">
<svg xmlns="http://www.w3.org/2000/svg" xml:space="preserve" width="512px" height="512px" version="1.1" style="shape-rendering:geometricPrecision; text-rendering:geometricPrecision; image-rendering:optimizeQuality; fill-rule:evenodd; clip-rule:evenodd" viewBox="0 0 248 248" xmlns:xlink="http://www.w3.org/1999/xlink">
 <defs>
  <style type="text/css">
   <![CDATA[
    .fil0 {fill:#447D00}
    .fil1 {fill:white;fill-rule:nonzero}
   ]]>
  </style>
 </defs>
 <g>
  <metadata />
  <rect class="fil0" width="248" height="248" rx="9" ry="8"/>
  <path class="fil1" d="M167 198c-11,6 -24,10 -38,10 -31,0 -59,-18 -70,-44l-8 0 9 -16 10 -16 10 16 9 16 -8 0c10,15 28,25 48,25 15,0 28,-6 38,-14l0 23zm16 19l0 -67 -24 0 0 -13 63 0 0 13 -23 0 0 67 -16 0zm-156 -171l38 0 0 -14 12 0 0 14 38 0 0 13 -13 0c-4,13 -11,25 -20,36 8,7 19,12 34,17l-4 14c-17,-5 -31,-13 -41,-21 -11,8 -24,16 -41,21l-4 -14c14,-5 25,-10 34,-17 -10,-11 -16,-23 -21,-36l-12 0 0 -13zm61 13l-11 0 -12 0 -11 0c4,10 9,19 16,26l1 1 0 -1c8,-7 13,-16 17,-26zm42 -14c21,0 40,8 54,21 8,8 15,18 18,29l7 0 -9 14 -9 14 -8 -14 -9 -14 7 0c-3,-6 -7,-11 -11,-15 -12,-11 -28,-17 -45,-16l0 -18c2,-1 3,-1 5,-1z" />
 </g>
</svg>
